<svg baseProfile="full" xmlns="http://www.w3.org/2000/svg" height="31" width="30"><path fill="#333" d="M29.687 26.568c0 .933-.364 1.81-1.024 2.47-.66.66-1.538 1.025-2.472 1.025-.932 0-1.81-.364-2.47-1.024l-5.99-5.99c-1.662.85-3.54 1.34-5.536 1.34C5.46 24.39 0 18.93 0 12.194S5.46 0 12.194 0C18.93 0 24.39 5.46 24.39 12.195c0 2.194-.588 4.247-1.603 6.026l5.876 5.877c.66.66 1.024 1.537 1.024 2.47zm-17.49-23.63c-5.117 0-9.264 4.147-9.264 9.262 0 5.116 4.147 9.263 9.263 9.263s9.263-4.147 9.263-9.263c0-5.115-4.148-9.263-9.264-9.263z"/></svg>