<?xml version="1.0" encoding="utf-8"?><!DOCTYPE svg PUBLIC "-//W3C//DTD SVG 1.1//EN" "http://www.w3.org/Graphics/SVG/1.1/DTD/svg11.dtd"><svg version="1.1" baseProfile="full" xmlns="http://www.w3.org/2000/svg" xmlns:xlink="http://www.w3.org/1999/xlink" xmlns:ev="http://www.w3.org/2001/xml-events"   height="31px"   width="30px" ><path fill="rgb( 51, 51, 51 )" d="M29.687,26.568 C29.687,27.501 29.323,28.379 28.663,29.039 C28.002,29.699 27.125,30.063 26.191,30.063 C25.258,30.063 24.381,29.699 23.72,29.039 C23.72,29.039 17.731,23.05 17.731,23.05 C16.068,23.9 14.19,24.389 12.194,24.389 C5.45900000000001,24.389 0,18.93 0,12.195 C0,5.45999999999999 5.45900000000001,0 12.194,0 C18.929,0 24.389,5.45999999999999 24.389,12.195 C24.389,14.389 23.802,16.442 22.787,18.221 C22.787,18.221 28.663,24.097 28.663,24.097 C29.323,24.757 29.687,25.634 29.687,26.568 ZM12.196,2.937 C7.08000000000001,2.937 2.93300000000001,7.08499999999999 2.93300000000001,12.2 C2.93300000000001,17.316 7.08000000000001,21.463 12.196,21.463 C17.312,21.463 21.459,17.316 21.459,12.2 C21.459,7.08499999999999 17.312,2.937 12.196,2.937 Z "/></svg>